<?xml version="1.0" encoding="utf-8" standalone="no"?>
<!DOCTYPE svg PUBLIC "-//W3C//DTD SVG 1.1//EN"
  "http://www.w3.org/Graphics/SVG/1.1/DTD/svg11.dtd">
<svg xmlns:xlink="http://www.w3.org/1999/xlink" width="326.237pt" height="318.190125pt" viewBox="0 0 326.237 318.190125" xmlns="http://www.w3.org/2000/svg" version="1.1">
 <metadata>
  <rdf:RDF xmlns:dc="http://purl.org/dc/elements/1.1/" xmlns:cc="http://creativecommons.org/ns#" xmlns:rdf="http://www.w3.org/1999/02/22-rdf-syntax-ns#">
   <cc:Work>
    <dc:type rdf:resource="http://purl.org/dc/dcmitype/StillImage"/>
    <dc:date>2023-02-17T10:50:31.137039</dc:date>
    <dc:format>image/svg+xml</dc:format>
    <dc:creator>
     <cc:Agent>
      <dc:title>Matplotlib v3.6.1, https://matplotlib.org/</dc:title>
     </cc:Agent>
    </dc:creator>
   </cc:Work>
  </rdf:RDF>
 </metadata>
 <defs>
  <style type="text/css">*{stroke-linejoin: round; stroke-linecap: butt}</style>
 </defs>
 <g id="figure_1">
  <g id="patch_1">
   <path d="M -0 318.190125 
L 326.237 318.190125 
L 326.237 0 
L -0 0 
z
" style="fill: #ffffff"/>
  </g>
  <g id="axes_1">
   <g id="patch_2">
    <path d="M 299.35575 159.095062 
C 299.35575 141.622309 295.913998 124.319455 289.227465 108.176736 
C 282.540932 92.034016 272.739653 77.365365 260.38455 65.010263 
C 248.029447 52.65516 233.360796 42.853881 217.218077 36.167347 
C 201.075357 29.480814 183.772504 26.039062 166.29975 26.039062 
C 148.826996 26.039062 131.524143 29.480814 115.381423 36.167347 
C 99.238704 42.853881 84.570053 52.65516 72.21495 65.010263 
C 59.859847 77.365365 50.058568 92.034016 43.372035 108.176736 
C 36.685502 124.319455 33.24375 141.622309 33.24375 159.095062 
C 33.24375 176.567816 36.685502 193.87067 43.372035 210.013389 
C 50.058568 226.156109 59.859847 240.82476 72.21495 253.179862 
C 84.570053 265.534965 99.238704 275.336244 115.381423 282.022778 
C 131.524143 288.709311 148.826996 292.151062 166.29975 292.151062 
C 183.772504 292.151062 201.075357 288.709311 217.218077 282.022778 
C 233.360796 275.336244 248.029447 265.534965 260.38455 253.179862 
C 272.739653 240.82476 282.540932 226.156109 289.227465 210.013389 
C 295.913998 193.87067 299.35575 176.567816 299.35575 159.095062 
M 166.29975 159.095062 
C 166.29975 159.095062 166.29975 159.095062 166.29975 159.095062 
C 166.29975 159.095062 166.29975 159.095062 166.29975 159.095062 
C 166.29975 159.095062 166.29975 159.095062 166.29975 159.095062 
C 166.29975 159.095062 166.29975 159.095062 166.29975 159.095062 
C 166.29975 159.095062 166.29975 159.095062 166.29975 159.095062 
C 166.29975 159.095062 166.29975 159.095062 166.29975 159.095062 
C 166.29975 159.095062 166.29975 159.095062 166.29975 159.095062 
C 166.29975 159.095062 166.29975 159.095062 166.29975 159.095062 
C 166.29975 159.095062 166.29975 159.095062 166.29975 159.095062 
C 166.29975 159.095062 166.29975 159.095062 166.29975 159.095062 
C 166.29975 159.095062 166.29975 159.095062 166.29975 159.095062 
C 166.29975 159.095062 166.29975 159.095062 166.29975 159.095062 
C 166.29975 159.095062 166.29975 159.095062 166.29975 159.095062 
C 166.29975 159.095062 166.29975 159.095062 166.29975 159.095062 
C 166.29975 159.095062 166.29975 159.095062 166.29975 159.095062 
C 166.29975 159.095062 166.29975 159.095062 166.29975 159.095062 
M 299.35575 159.095062 
z
" style="fill: #ffffff"/>
   </g>
   <g id="matplotlib.axis_1">
    <g id="xtick_1">
     <g id="line2d_1">
      <path d="M 166.29975 159.095062 
L 299.35575 159.095062 
" clip-path="url(#pba56da79a6)" style="fill: none; stroke: #b0b0b0; stroke-width: 0.8; stroke-linecap: square"/>
     </g>
     <g id="text_1">
      <!-- 0° -->
      <g transform="translate(307.6745 161.854437) scale(0.1 -0.1)">
       <defs>
        <path id="DejaVuSans-30" d="M 2034 4250 
Q 1547 4250 1301 3770 
Q 1056 3291 1056 2328 
Q 1056 1369 1301 889 
Q 1547 409 2034 409 
Q 2525 409 2770 889 
Q 3016 1369 3016 2328 
Q 3016 3291 2770 3770 
Q 2525 4250 2034 4250 
z
M 2034 4750 
Q 2819 4750 3233 4129 
Q 3647 3509 3647 2328 
Q 3647 1150 3233 529 
Q 2819 -91 2034 -91 
Q 1250 -91 836 529 
Q 422 1150 422 2328 
Q 422 3509 836 4129 
Q 1250 4750 2034 4750 
z
" transform="scale(0.015625)"/>
        <path id="DejaVuSans-b0" d="M 1600 4347 
Q 1350 4347 1178 4173 
Q 1006 4000 1006 3750 
Q 1006 3503 1178 3333 
Q 1350 3163 1600 3163 
Q 1850 3163 2022 3333 
Q 2194 3503 2194 3750 
Q 2194 3997 2020 4172 
Q 1847 4347 1600 4347 
z
M 1600 4750 
Q 1800 4750 1984 4673 
Q 2169 4597 2303 4453 
Q 2447 4313 2519 4134 
Q 2591 3956 2591 3750 
Q 2591 3338 2302 3052 
Q 2013 2766 1594 2766 
Q 1172 2766 890 3047 
Q 609 3328 609 3750 
Q 609 4169 896 4459 
Q 1184 4750 1600 4750 
z
" transform="scale(0.015625)"/>
       </defs>
       <use xlink:href="#DejaVuSans-30"/>
       <use xlink:href="#DejaVuSans-b0" x="63.623047"/>
      </g>
     </g>
    </g>
    <g id="xtick_2">
     <g id="line2d_2">
      <path d="M 166.29975 159.095062 
L 260.38455 65.010263 
" clip-path="url(#pba56da79a6)" style="fill: none; stroke: #b0b0b0; stroke-width: 0.8; stroke-linecap: square"/>
     </g>
     <g id="text_2">
      <!-- 45° -->
      <g transform="translate(261.421545 57.870143) scale(0.1 -0.1)">
       <defs>
        <path id="DejaVuSans-34" d="M 2419 4116 
L 825 1625 
L 2419 1625 
L 2419 4116 
z
M 2253 4666 
L 3047 4666 
L 3047 1625 
L 3713 1625 
L 3713 1100 
L 3047 1100 
L 3047 0 
L 2419 0 
L 2419 1100 
L 313 1100 
L 313 1709 
L 2253 4666 
z
" transform="scale(0.015625)"/>
        <path id="DejaVuSans-35" d="M 691 4666 
L 3169 4666 
L 3169 4134 
L 1269 4134 
L 1269 2991 
Q 1406 3038 1543 3061 
Q 1681 3084 1819 3084 
Q 2600 3084 3056 2656 
Q 3513 2228 3513 1497 
Q 3513 744 3044 326 
Q 2575 -91 1722 -91 
Q 1428 -91 1123 -41 
Q 819 9 494 109 
L 494 744 
Q 775 591 1075 516 
Q 1375 441 1709 441 
Q 2250 441 2565 725 
Q 2881 1009 2881 1497 
Q 2881 1984 2565 2268 
Q 2250 2553 1709 2553 
Q 1456 2553 1204 2497 
Q 953 2441 691 2322 
L 691 4666 
z
" transform="scale(0.015625)"/>
       </defs>
       <use xlink:href="#DejaVuSans-34"/>
       <use xlink:href="#DejaVuSans-35" x="63.623047"/>
       <use xlink:href="#DejaVuSans-b0" x="127.246094"/>
      </g>
     </g>
    </g>
    <g id="xtick_3">
     <g id="line2d_3">
      <path d="M 166.29975 159.095062 
L 166.29975 26.039062 
" clip-path="url(#pba56da79a6)" style="fill: none; stroke: #b0b0b0; stroke-width: 0.8; stroke-linecap: square"/>
     </g>
     <g id="text_3">
      <!-- 90° -->
      <g transform="translate(157.43725 14.798437) scale(0.1 -0.1)">
       <defs>
        <path id="DejaVuSans-39" d="M 703 97 
L 703 672 
Q 941 559 1184 500 
Q 1428 441 1663 441 
Q 2288 441 2617 861 
Q 2947 1281 2994 2138 
Q 2813 1869 2534 1725 
Q 2256 1581 1919 1581 
Q 1219 1581 811 2004 
Q 403 2428 403 3163 
Q 403 3881 828 4315 
Q 1253 4750 1959 4750 
Q 2769 4750 3195 4129 
Q 3622 3509 3622 2328 
Q 3622 1225 3098 567 
Q 2575 -91 1691 -91 
Q 1453 -91 1209 -44 
Q 966 3 703 97 
z
M 1959 2075 
Q 2384 2075 2632 2365 
Q 2881 2656 2881 3163 
Q 2881 3666 2632 3958 
Q 2384 4250 1959 4250 
Q 1534 4250 1286 3958 
Q 1038 3666 1038 3163 
Q 1038 2656 1286 2365 
Q 1534 2075 1959 2075 
z
" transform="scale(0.015625)"/>
       </defs>
       <use xlink:href="#DejaVuSans-39"/>
       <use xlink:href="#DejaVuSans-30" x="63.623047"/>
       <use xlink:href="#DejaVuSans-b0" x="127.246094"/>
      </g>
     </g>
    </g>
    <g id="xtick_4">
     <g id="line2d_4">
      <path d="M 166.29975 159.095062 
L 72.21495 65.010263 
" clip-path="url(#pba56da79a6)" style="fill: none; stroke: #b0b0b0; stroke-width: 0.8; stroke-linecap: square"/>
     </g>
     <g id="text_4">
      <!-- 135° -->
      <g transform="translate(50.271705 57.870143) scale(0.1 -0.1)">
       <defs>
        <path id="DejaVuSans-31" d="M 794 531 
L 1825 531 
L 1825 4091 
L 703 3866 
L 703 4441 
L 1819 4666 
L 2450 4666 
L 2450 531 
L 3481 531 
L 3481 0 
L 794 0 
L 794 531 
z
" transform="scale(0.015625)"/>
        <path id="DejaVuSans-33" d="M 2597 2516 
Q 3050 2419 3304 2112 
Q 3559 1806 3559 1356 
Q 3559 666 3084 287 
Q 2609 -91 1734 -91 
Q 1441 -91 1130 -33 
Q 819 25 488 141 
L 488 750 
Q 750 597 1062 519 
Q 1375 441 1716 441 
Q 2309 441 2620 675 
Q 2931 909 2931 1356 
Q 2931 1769 2642 2001 
Q 2353 2234 1838 2234 
L 1294 2234 
L 1294 2753 
L 1863 2753 
Q 2328 2753 2575 2939 
Q 2822 3125 2822 3475 
Q 2822 3834 2567 4026 
Q 2313 4219 1838 4219 
Q 1578 4219 1281 4162 
Q 984 4106 628 3988 
L 628 4550 
Q 988 4650 1302 4700 
Q 1616 4750 1894 4750 
Q 2613 4750 3031 4423 
Q 3450 4097 3450 3541 
Q 3450 3153 3228 2886 
Q 3006 2619 2597 2516 
z
" transform="scale(0.015625)"/>
       </defs>
       <use xlink:href="#DejaVuSans-31"/>
       <use xlink:href="#DejaVuSans-33" x="63.623047"/>
       <use xlink:href="#DejaVuSans-35" x="127.246094"/>
       <use xlink:href="#DejaVuSans-b0" x="190.869141"/>
      </g>
     </g>
    </g>
    <g id="xtick_5">
     <g id="line2d_5">
      <path d="M 166.29975 159.095062 
L 33.24375 159.095062 
" clip-path="url(#pba56da79a6)" style="fill: none; stroke: #b0b0b0; stroke-width: 0.8; stroke-linecap: square"/>
     </g>
     <g id="text_5">
      <!-- 180° -->
      <g transform="translate(7.2 161.854437) scale(0.1 -0.1)">
       <defs>
        <path id="DejaVuSans-38" d="M 2034 2216 
Q 1584 2216 1326 1975 
Q 1069 1734 1069 1313 
Q 1069 891 1326 650 
Q 1584 409 2034 409 
Q 2484 409 2743 651 
Q 3003 894 3003 1313 
Q 3003 1734 2745 1975 
Q 2488 2216 2034 2216 
z
M 1403 2484 
Q 997 2584 770 2862 
Q 544 3141 544 3541 
Q 544 4100 942 4425 
Q 1341 4750 2034 4750 
Q 2731 4750 3128 4425 
Q 3525 4100 3525 3541 
Q 3525 3141 3298 2862 
Q 3072 2584 2669 2484 
Q 3125 2378 3379 2068 
Q 3634 1759 3634 1313 
Q 3634 634 3220 271 
Q 2806 -91 2034 -91 
Q 1263 -91 848 271 
Q 434 634 434 1313 
Q 434 1759 690 2068 
Q 947 2378 1403 2484 
z
M 1172 3481 
Q 1172 3119 1398 2916 
Q 1625 2713 2034 2713 
Q 2441 2713 2670 2916 
Q 2900 3119 2900 3481 
Q 2900 3844 2670 4047 
Q 2441 4250 2034 4250 
Q 1625 4250 1398 4047 
Q 1172 3844 1172 3481 
z
" transform="scale(0.015625)"/>
       </defs>
       <use xlink:href="#DejaVuSans-31"/>
       <use xlink:href="#DejaVuSans-38" x="63.623047"/>
       <use xlink:href="#DejaVuSans-30" x="127.246094"/>
       <use xlink:href="#DejaVuSans-b0" x="190.869141"/>
      </g>
     </g>
    </g>
    <g id="xtick_6">
     <g id="line2d_6">
      <path d="M 166.29975 159.095062 
L 72.21495 253.179862 
" clip-path="url(#pba56da79a6)" style="fill: none; stroke: #b0b0b0; stroke-width: 0.8; stroke-linecap: square"/>
     </g>
     <g id="text_6">
      <!-- 225° -->
      <g transform="translate(50.271705 265.838732) scale(0.1 -0.1)">
       <defs>
        <path id="DejaVuSans-32" d="M 1228 531 
L 3431 531 
L 3431 0 
L 469 0 
L 469 531 
Q 828 903 1448 1529 
Q 2069 2156 2228 2338 
Q 2531 2678 2651 2914 
Q 2772 3150 2772 3378 
Q 2772 3750 2511 3984 
Q 2250 4219 1831 4219 
Q 1534 4219 1204 4116 
Q 875 4013 500 3803 
L 500 4441 
Q 881 4594 1212 4672 
Q 1544 4750 1819 4750 
Q 2544 4750 2975 4387 
Q 3406 4025 3406 3419 
Q 3406 3131 3298 2873 
Q 3191 2616 2906 2266 
Q 2828 2175 2409 1742 
Q 1991 1309 1228 531 
z
" transform="scale(0.015625)"/>
       </defs>
       <use xlink:href="#DejaVuSans-32"/>
       <use xlink:href="#DejaVuSans-32" x="63.623047"/>
       <use xlink:href="#DejaVuSans-35" x="127.246094"/>
       <use xlink:href="#DejaVuSans-b0" x="190.869141"/>
      </g>
     </g>
    </g>
    <g id="xtick_7">
     <g id="line2d_7">
      <path d="M 166.29975 159.095062 
L 166.29975 292.151062 
" clip-path="url(#pba56da79a6)" style="fill: none; stroke: #b0b0b0; stroke-width: 0.8; stroke-linecap: square"/>
     </g>
     <g id="text_7">
      <!-- 270° -->
      <g transform="translate(154.256 308.910437) scale(0.1 -0.1)">
       <defs>
        <path id="DejaVuSans-37" d="M 525 4666 
L 3525 4666 
L 3525 4397 
L 1831 0 
L 1172 0 
L 2766 4134 
L 525 4134 
L 525 4666 
z
" transform="scale(0.015625)"/>
       </defs>
       <use xlink:href="#DejaVuSans-32"/>
       <use xlink:href="#DejaVuSans-37" x="63.623047"/>
       <use xlink:href="#DejaVuSans-30" x="127.246094"/>
       <use xlink:href="#DejaVuSans-b0" x="190.869141"/>
      </g>
     </g>
    </g>
    <g id="xtick_8">
     <g id="line2d_8">
      <path d="M 166.29975 159.095062 
L 260.38455 253.179862 
" clip-path="url(#pba56da79a6)" style="fill: none; stroke: #b0b0b0; stroke-width: 0.8; stroke-linecap: square"/>
     </g>
     <g id="text_8">
      <!-- 315° -->
      <g transform="translate(258.240295 265.838732) scale(0.1 -0.1)">
       <use xlink:href="#DejaVuSans-33"/>
       <use xlink:href="#DejaVuSans-31" x="63.623047"/>
       <use xlink:href="#DejaVuSans-35" x="127.246094"/>
       <use xlink:href="#DejaVuSans-b0" x="190.869141"/>
      </g>
     </g>
    </g>
   </g>
   <g id="matplotlib.axis_2">
    <g id="ytick_1">
     <g id="line2d_9">
      <path d="M 198.138946 159.095062 
C 198.138946 154.913978 197.315363 150.773548 195.715331 146.91073 
C 194.1153 143.047911 191.769935 139.537825 188.813461 136.581351 
C 185.856988 133.624878 182.346902 131.279513 178.484083 129.679481 
C 174.621264 128.079449 170.480835 127.255867 166.29975 127.255867 
C 162.118665 127.255867 157.978236 128.079449 154.115417 129.679481 
C 150.252598 131.279513 146.742512 133.624878 143.786039 136.581351 
C 140.829565 139.537825 138.4842 143.047911 136.884169 146.91073 
C 135.284137 150.773548 134.460554 154.913978 134.460554 159.095062 
C 134.460554 163.276147 135.284137 167.416577 136.884169 171.279395 
C 138.4842 175.142214 140.829565 178.6523 143.786039 181.608774 
C 146.742512 184.565247 150.252598 186.910612 154.115417 188.510644 
C 157.978236 190.110676 162.118665 190.934258 166.29975 190.934258 
C 170.480835 190.934258 174.621264 190.110676 178.484083 188.510644 
C 182.346902 186.910612 185.856988 184.565247 188.813461 181.608774 
C 191.769935 178.6523 194.1153 175.142214 195.715331 171.279395 
C 197.315363 167.416577 198.138946 163.276147 198.138946 159.095062 
" clip-path="url(#pba56da79a6)" style="fill: none; stroke: #b0b0b0; stroke-width: 0.8; stroke-linecap: square"/>
     </g>
     <g id="text_9">
      <!-- 0.5 -->
      <g transform="translate(195.715331 144.831042) scale(0.1 -0.1)">
       <defs>
        <path id="DejaVuSans-2e" d="M 684 794 
L 1344 794 
L 1344 0 
L 684 0 
L 684 794 
z
" transform="scale(0.015625)"/>
       </defs>
       <use xlink:href="#DejaVuSans-30"/>
       <use xlink:href="#DejaVuSans-2e" x="63.623047"/>
       <use xlink:href="#DejaVuSans-35" x="95.410156"/>
      </g>
     </g>
    </g>
    <g id="ytick_2">
     <g id="line2d_10">
      <path d="M 229.978142 159.095062 
C 229.978142 150.732893 228.330977 142.452034 225.130913 134.726397 
C 221.930849 127.000759 217.24012 119.980587 211.327173 114.06764 
C 205.414226 108.154693 198.394053 103.463963 190.668416 100.2639 
C 182.942778 97.063836 174.66192 95.416671 166.29975 95.416671 
C 157.93758 95.416671 149.656722 97.063836 141.931084 100.2639 
C 134.205447 103.463963 127.185274 108.154693 121.272327 114.06764 
C 115.35938 119.980587 110.668651 127.000759 107.468587 134.726397 
C 104.268523 142.452034 102.621358 150.732893 102.621358 159.095062 
C 102.621358 167.457232 104.268523 175.738091 107.468587 183.463728 
C 110.668651 191.189366 115.35938 198.209538 121.272327 204.122485 
C 127.185274 210.035432 134.205447 214.726162 141.931084 217.926225 
C 149.656722 221.126289 157.93758 222.773454 166.29975 222.773454 
C 174.66192 222.773454 182.942778 221.126289 190.668416 217.926225 
C 198.394053 214.726162 205.414226 210.035432 211.327173 204.122485 
C 217.24012 198.209538 221.930849 191.189366 225.130913 183.463728 
C 228.330977 175.738091 229.978142 167.457232 229.978142 159.095062 
" clip-path="url(#pba56da79a6)" style="fill: none; stroke: #b0b0b0; stroke-width: 0.8; stroke-linecap: square"/>
     </g>
     <g id="text_10">
      <!-- 1.0 -->
      <g transform="translate(225.130913 132.646709) scale(0.1 -0.1)">
       <use xlink:href="#DejaVuSans-31"/>
       <use xlink:href="#DejaVuSans-2e" x="63.623047"/>
       <use xlink:href="#DejaVuSans-30" x="95.410156"/>
      </g>
     </g>
    </g>
    <g id="ytick_3">
     <g id="line2d_11">
      <path d="M 261.817338 159.095062 
C 261.817338 146.551808 259.34659 134.13052 254.546494 122.542064 
C 249.746399 110.953608 242.710305 100.423349 233.840884 91.553928 
C 224.971464 82.684508 214.441205 75.648414 202.852748 70.848318 
C 191.264292 66.048222 178.843005 63.577475 166.29975 63.577475 
C 153.756495 63.577475 141.335208 66.048222 129.746752 70.848318 
C 118.158295 75.648414 107.628036 82.684508 98.758616 91.553928 
C 89.889195 100.423349 82.853101 110.953608 78.053006 122.542064 
C 73.25291 134.13052 70.782162 146.551808 70.782162 159.095062 
C 70.782162 171.638317 73.25291 184.059605 78.053006 195.648061 
C 82.853101 207.236517 89.889195 217.766776 98.758616 226.636197 
C 107.628036 235.505617 118.158295 242.541711 129.746752 247.341807 
C 141.335208 252.141903 153.756495 254.61265 166.29975 254.61265 
C 178.843005 254.61265 191.264292 252.141903 202.852748 247.341807 
C 214.441205 242.541711 224.971464 235.505617 233.840884 226.636197 
C 242.710305 217.766776 249.746399 207.236517 254.546494 195.648061 
C 259.34659 184.059605 261.817338 171.638317 261.817338 159.095062 
" clip-path="url(#pba56da79a6)" style="fill: none; stroke: #b0b0b0; stroke-width: 0.8; stroke-linecap: square"/>
     </g>
     <g id="text_11">
      <!-- 1.5 -->
      <g transform="translate(254.546494 120.462377) scale(0.1 -0.1)">
       <use xlink:href="#DejaVuSans-31"/>
       <use xlink:href="#DejaVuSans-2e" x="63.623047"/>
       <use xlink:href="#DejaVuSans-35" x="95.410156"/>
      </g>
     </g>
    </g>
    <g id="ytick_4">
     <g id="line2d_12">
      <path d="M 293.656534 159.095062 
C 293.656534 142.370723 290.362204 125.809006 283.962076 110.357731 
C 277.561948 94.906456 268.18049 80.866111 256.354596 69.040217 
C 244.528702 57.214323 230.488356 47.832864 215.037081 41.432737 
C 199.585806 35.032609 183.02409 31.738279 166.29975 31.738279 
C 149.57541 31.738279 133.013694 35.032609 117.562419 41.432737 
C 102.111144 47.832864 88.070798 57.214323 76.244904 69.040217 
C 64.41901 80.866111 55.037552 94.906456 48.637424 110.357731 
C 42.237296 125.809006 38.942966 142.370723 38.942966 159.095062 
C 38.942966 175.819402 42.237296 192.381119 48.637424 207.832394 
C 55.037552 223.283669 64.41901 237.324014 76.244904 249.149908 
C 88.070798 260.975802 102.111144 270.357261 117.562419 276.757388 
C 133.013694 283.157516 149.57541 286.451846 166.29975 286.451846 
C 183.02409 286.451846 199.585806 283.157516 215.037081 276.757388 
C 230.488356 270.357261 244.528702 260.975802 256.354596 249.149908 
C 268.18049 237.324014 277.561948 223.283669 283.962076 207.832394 
C 290.362204 192.381119 293.656534 175.819402 293.656534 159.095062 
" clip-path="url(#pba56da79a6)" style="fill: none; stroke: #b0b0b0; stroke-width: 0.8; stroke-linecap: square"/>
     </g>
     <g id="text_12">
      <!-- 2.0 -->
      <g transform="translate(283.962076 108.278044) scale(0.1 -0.1)">
       <use xlink:href="#DejaVuSans-32"/>
       <use xlink:href="#DejaVuSans-2e" x="63.623047"/>
       <use xlink:href="#DejaVuSans-30" x="95.410156"/>
      </g>
     </g>
    </g>
   </g>
   <g id="line2d_13">
    <path d="M 166.29975 159.095062 
L 167.563275 158.935442 
L 168.766863 158.461616 
L 169.85215 157.688568 
L 170.763894 156.640879 
L 171.45144 155.352141 
L 171.870096 153.864159 
L 171.982369 152.225956 
L 171.759044 150.492591 
L 171.180079 148.723835 
L 170.235291 146.982713 
L 168.924821 145.333959 
L 167.259366 143.842406 
L 165.260166 142.571351 
L 162.958751 141.58093 
L 160.396438 140.926538 
L 157.623609 140.657324 
L 154.69875 140.814811 
L 153.199523 141.064147 
L 151.687302 141.431647 
L 150.171132 141.919829 
L 148.660321 142.530536 
L 147.164383 143.26491 
L 145.692989 144.123375 
L 144.255918 145.105621 
L 142.862994 146.210597 
L 141.524039 147.436498 
L 140.248815 148.780767 
L 139.046963 150.240095 
L 137.927954 151.810423 
L 136.901028 153.486956 
L 135.975141 155.264173 
L 135.158909 157.135847 
L 134.460554 159.095062 
L 133.887854 161.134246 
L 133.44809 163.245192 
L 133.148 165.419097 
L 132.993728 167.646595 
L 132.990788 169.9178 
L 133.144014 172.222347 
L 133.457529 174.549439 
L 133.934706 176.887896 
L 134.578138 179.22621 
L 135.389609 181.552594 
L 136.370073 183.855045 
L 137.519629 186.121395 
L 138.837509 188.339379 
L 140.322064 190.496691 
L 141.970757 192.581048 
L 143.780161 194.580256 
L 145.745959 196.482269 
L 147.86295 198.275256 
L 150.12506 199.947666 
L 152.525356 201.488287 
L 155.056068 202.886313 
L 157.708609 204.131403 
L 160.473606 205.213739 
L 163.340935 206.124088 
L 166.29975 206.853856 
L 169.338533 207.395143 
L 172.445134 207.740789 
L 175.60682 207.884431 
L 178.810326 207.820539 
L 182.041914 207.544462 
L 185.287429 207.052466 
L 188.532361 206.341766 
L 191.761908 205.410557 
L 194.961044 204.258036 
L 198.114587 202.884429 
L 201.207266 201.291001 
L 204.223797 199.480071 
L 207.148954 197.455018 
L 209.967639 195.220282 
L 212.664961 192.78136 
L 215.226305 190.144798 
L 217.637406 187.318178 
L 219.884426 184.310097 
L 221.954021 181.130147 
L 223.833412 177.788883 
L 225.510455 174.297788 
L 226.973708 170.669239 
L 228.212493 166.916461 
L 229.21696 163.053478 
L 229.978142 159.095062 
L 230.488015 155.056679 
L 230.739544 150.954423 
L 230.726737 146.804957 
L 230.444681 142.625444 
L 229.889587 138.433472 
L 229.058822 134.246988 
L 227.950937 130.084216 
L 226.565694 125.963579 
L 224.904085 121.903621 
L 222.968341 117.922921 
L 220.761949 114.040013 
L 218.289646 110.273301 
L 215.557421 106.640971 
L 212.572504 103.160912 
L 209.343353 99.850626 
L 205.879633 96.727147 
L 202.19219 93.806956 
L 198.29302 91.105903 
L 194.19523 88.639123 
L 189.912996 86.420963 
L 185.461518 84.464903 
L 180.856962 82.783486 
L 176.116403 81.388252 
L 171.257765 80.289668 
L 166.29975 79.497073 
L 161.261767 79.018614 
L 156.163856 78.861201 
L 151.02661 79.030458 
L 145.871088 79.530677 
L 140.718733 80.364788 
L 135.591281 81.534323 
L 130.510668 83.039393 
L 125.498942 84.878668 
L 120.578161 87.049367 
L 115.770303 89.547246 
L 111.097167 92.366602 
L 106.580273 95.500279 
L 102.240771 98.939677 
L 98.099338 102.674775 
L 94.176088 106.694155 
L 90.490473 110.985032 
L 87.061194 115.533298 
L 83.906108 120.323557 
L 81.042143 125.339188 
L 78.485213 130.56239 
L 76.250135 135.974251 
L 74.350555 141.554816 
L 72.798872 147.283155 
L 71.606172 153.137448 
L 70.782162 159.095062 
L 70.335117 165.132645 
L 70.271821 171.226211 
L 70.597527 177.351238 
L 71.31591 183.482768 
L 72.429038 189.595506 
L 73.937342 195.663927 
L 75.839597 201.662379 
L 78.132906 207.565195 
L 80.812693 213.346798 
L 83.872708 218.981814 
L 87.305029 224.445179 
L 91.100079 229.712254 
L 95.24665 234.758929 
L 99.731929 239.561735 
L 104.541538 244.09795 
L 109.659573 248.345701 
L 115.06866 252.284069 
L 120.75001 255.893188 
L 126.683481 259.154337 
L 132.847651 262.050037 
L 139.219896 264.564132 
L 145.776468 266.681875 
L 152.492588 268.390008 
L 159.342535 269.676825 
L 166.29975 270.532248 
L 173.336933 270.94788 
L 180.426153 270.917058 
L 187.538961 270.434904 
L 194.646498 269.498357 
L 201.71962 268.106212 
L 208.729009 266.259138 
L 215.645302 263.959698 
L 222.439208 261.212357 
L 229.081633 258.023481 
L 235.543806 254.40133 
L 241.7974 250.356045 
L 247.814656 245.899621 
L 253.568504 241.045877 
L 259.032684 235.810417 
L 264.181862 230.21058 
L 268.991749 224.265387 
L 273.439206 217.995477 
L 277.502358 211.423038 
L 281.160693 204.571727 
L 284.395162 197.466588 
L 287.188274 190.13396 
L 289.524181 182.60138 
L 291.388762 174.89748 
L 292.769697 167.051877 
L 292.769697 167.051877 
" clip-path="url(#pba56da79a6)" style="fill: none; stroke: #1f77b4; stroke-width: 1.5; stroke-linecap: square"/>
   </g>
   <g id="patch_3">
    <path d="M 299.35575 159.095062 
C 299.35575 141.622309 295.913998 124.319455 289.227465 108.176736 
C 282.540932 92.034016 272.739653 77.365365 260.38455 65.010263 
C 248.029447 52.65516 233.360796 42.853881 217.218077 36.167347 
C 201.075357 29.480814 183.772504 26.039062 166.29975 26.039062 
C 148.826996 26.039062 131.524143 29.480814 115.381423 36.167347 
C 99.238704 42.853881 84.570053 52.65516 72.21495 65.010263 
C 59.859847 77.365365 50.058568 92.034016 43.372035 108.176736 
C 36.685502 124.319455 33.24375 141.622309 33.24375 159.095062 
C 33.24375 176.567816 36.685502 193.87067 43.372035 210.013389 
C 50.058568 226.156109 59.859847 240.82476 72.21495 253.179862 
C 84.570053 265.534965 99.238704 275.336244 115.381423 282.022778 
C 131.524143 288.709311 148.826996 292.151062 166.29975 292.151062 
C 183.772504 292.151062 201.075357 288.709311 217.218077 282.022778 
C 233.360796 275.336244 248.029447 265.534965 260.38455 253.179862 
C 272.739653 240.82476 282.540932 226.156109 289.227465 210.013389 
C 295.913998 193.87067 299.35575 176.567816 299.35575 159.095062 
" style="fill: none; stroke: #000000; stroke-width: 0.8; stroke-linejoin: miter; stroke-linecap: square"/>
   </g>
  </g>
 </g>
 <defs>
  <clipPath id="pba56da79a6">
   <path d="M 299.35575 159.095062 
C 299.35575 141.622309 295.913998 124.319455 289.227465 108.176736 
C 282.540932 92.034016 272.739653 77.365365 260.38455 65.010263 
C 248.029447 52.65516 233.360796 42.853881 217.218077 36.167347 
C 201.075357 29.480814 183.772504 26.039062 166.29975 26.039062 
C 148.826996 26.039062 131.524143 29.480814 115.381423 36.167347 
C 99.238704 42.853881 84.570053 52.65516 72.21495 65.010263 
C 59.859847 77.365365 50.058568 92.034016 43.372035 108.176736 
C 36.685502 124.319455 33.24375 141.622309 33.24375 159.095062 
C 33.24375 176.567816 36.685502 193.87067 43.372035 210.013389 
C 50.058568 226.156109 59.859847 240.82476 72.21495 253.179862 
C 84.570053 265.534965 99.238704 275.336244 115.381423 282.022778 
C 131.524143 288.709311 148.826996 292.151062 166.29975 292.151062 
C 183.772504 292.151062 201.075357 288.709311 217.218077 282.022778 
C 233.360796 275.336244 248.029447 265.534965 260.38455 253.179862 
C 272.739653 240.82476 282.540932 226.156109 289.227465 210.013389 
C 295.913998 193.87067 299.35575 176.567816 299.35575 159.095062 
M 166.29975 159.095062 
C 166.29975 159.095062 166.29975 159.095062 166.29975 159.095062 
C 166.29975 159.095062 166.29975 159.095062 166.29975 159.095062 
C 166.29975 159.095062 166.29975 159.095062 166.29975 159.095062 
C 166.29975 159.095062 166.29975 159.095062 166.29975 159.095062 
C 166.29975 159.095062 166.29975 159.095062 166.29975 159.095062 
C 166.29975 159.095062 166.29975 159.095062 166.29975 159.095062 
C 166.29975 159.095062 166.29975 159.095062 166.29975 159.095062 
C 166.29975 159.095062 166.29975 159.095062 166.29975 159.095062 
C 166.29975 159.095062 166.29975 159.095062 166.29975 159.095062 
C 166.29975 159.095062 166.29975 159.095062 166.29975 159.095062 
C 166.29975 159.095062 166.29975 159.095062 166.29975 159.095062 
C 166.29975 159.095062 166.29975 159.095062 166.29975 159.095062 
C 166.29975 159.095062 166.29975 159.095062 166.29975 159.095062 
C 166.29975 159.095062 166.29975 159.095062 166.29975 159.095062 
C 166.29975 159.095062 166.29975 159.095062 166.29975 159.095062 
C 166.29975 159.095062 166.29975 159.095062 166.29975 159.095062 
M 299.35575 159.095062 
z
"/>
  </clipPath>
 </defs>
</svg>
